<svg xmlns="http://www.w3.org/2000/svg" width="32" height="32" viewBox="0 0 32 32">
  <g id="Raggruppa_1442" data-name="Raggruppa 1442" transform="translate(-1154 -337)">
    <rect id="Rettangolo_340" data-name="Rettangolo 340" width="32" height="32" transform="translate(1154 337)" fill="#fff"/>
    <g id="Raggruppa_1441" data-name="Raggruppa 1441" transform="translate(1148.479 333.21)">
      <rect id="Rettangolo_151" data-name="Rettangolo 151" width="4.661" height="0.658" transform="translate(23.955 15.408) rotate(-45)" fill="#868686" stroke="#868686" stroke-width="0.2"/>
      <rect id="Rettangolo_152" data-name="Rettangolo 152" width="4.661" height="0.658" transform="translate(25.416 16.87) rotate(-45)" fill="#868686" stroke="#868686" stroke-width="0.2"/>
      <path id="Tracciato_19770" data-name="Tracciato 19770" d="M22.511,20.257l.77-.809c.28-.288.621-.281,1.2-.247a3.168,3.168,0,0,0,2.8-.939L30.341,15.2l-.466-.466L26.816,17.8a2.547,2.547,0,0,1-2.3.748,1.958,1.958,0,0,0-1.712.448l-8.98,9.428a.672.672,0,0,1-.482.211.692.692,0,0,1-.488-.2.678.678,0,0,1,.013-.971l9.43-8.982a1.962,1.962,0,0,0,.446-1.71,2.547,2.547,0,0,1,.748-2.3l3.059-3.059-.466-.466-3.059,3.059a3.17,3.17,0,0,0-.94,2.8c.035.576.041.917-.245,1.195l-.811.772L12.545,10.29l.1.927c.358,3.348,3.258,7.3,5.716,10.108l-5.943,5.66a1.336,1.336,0,0,0,.918,2.3h.019a1.324,1.324,0,0,0,.951-.416l5.59-5.869c1.417,1.489,2.5,2.458,2.511,2.468l.229.2,1.13-1.1,3.876,4.308a1.237,1.237,0,1,0,1.791-1.7Zm-9.029-8.1,7.074,7.074-1.719,1.638C16.7,18.421,14.219,15.1,13.482,12.159Zm15.484,16.3a.592.592,0,0,1-.836-.021L23.8,23.623l-1.178,1.151c-.388-.359-1.24-1.166-2.268-2.247l1.708-1.794,6.909,6.909a.577.577,0,0,1,.17.412A.57.57,0,0,1,28.967,28.461Z" fill="#868686" stroke="#868686" stroke-width="0.2"/>
    </g>
  </g>
</svg>
