<svg xmlns="http://www.w3.org/2000/svg" width="16.998" height="17" viewBox="0 0 16.998 17">
  <path id="Tracciato_1" data-name="Tracciato 1" d="M8.5,0A8.511,8.511,0,0,0,.75,5.017l-.007.017a8.5,8.5,0,0,0,0,6.937h0l0,.009a8.5,8.5,0,0,0,15.5.019l0,0,0-.011a.422.422,0,0,0,.021-.047,8.495,8.495,0,0,0,0-6.873A.478.478,0,0,0,16.251,5,8.51,8.51,0,0,0,8.5,0Zm0,1a1.255,1.255,0,0,1,.9.473,5.035,5.035,0,0,1,.923,1.557,11.031,11.031,0,0,1,.519,1.709H6.166a11.11,11.11,0,0,1,.517-1.709,5.01,5.01,0,0,1,.923-1.557A1.256,1.256,0,0,1,8.5,1Zm-2.022.276a6.954,6.954,0,0,0-.728,1.382A12.223,12.223,0,0,0,5.139,4.74H2.011a7.5,7.5,0,0,1,4.47-3.464Zm4.043,0A7.5,7.5,0,0,1,15,4.74H11.868a12.282,12.282,0,0,0-.614-2.082,6.921,6.921,0,0,0-.728-1.382Zm-9,4.463H4.963A19.505,19.505,0,0,0,4.772,8.5a19.408,19.408,0,0,0,.191,2.76H1.526a7.547,7.547,0,0,1,0-5.521Zm4.451,0h5.05a18.26,18.26,0,0,1,.206,2.76,18.26,18.26,0,0,1-.206,2.76H5.977a18.641,18.641,0,0,1,0-5.521Zm6.065,0h3.437a7.547,7.547,0,0,1,0,5.521H12.043a19.5,19.5,0,0,0,.191-2.76,19.5,19.5,0,0,0-.191-2.76ZM2.01,12.261H5.138a12.333,12.333,0,0,0,.615,2.081,6.921,6.921,0,0,0,.728,1.382A7.5,7.5,0,0,1,2.01,12.262Zm4.155,0h4.676a11.045,11.045,0,0,1-.519,1.708A5.01,5.01,0,0,1,9.4,15.526,1.3,1.3,0,0,1,8.556,16h-.1a1.3,1.3,0,0,1-.845-.471,5.043,5.043,0,0,1-.923-1.557,10.933,10.933,0,0,1-.517-1.708Zm5.7,0h3.128a7.5,7.5,0,0,1-4.471,3.462,6.87,6.87,0,0,0,.729-1.382,12.319,12.319,0,0,0,.614-2.081Z" transform="translate(-0.004 0.001)" fill="#000"/>
</svg>